<svg xmlns="http://www.w3.org/2000/svg" width="42" height="42" viewBox="0 0 42 42"><path fill="#fff" d="M41.24 1.73c-1-1-2.63-1-3.64 0L32.4 6.95a12.71 12.71 0 0 0-7.06-2.12 12.6 12.6 0 0 0-9.06 3.75l-7.69 7.69A12.82 12.82 0 0 0 6.95 32.4l-5.22 5.22A2.57 2.57 0 0 0 3.54 42c.66 0 1.31-.25 1.82-.75l5.21-5.22A12.78 12.78 0 0 0 26.7 34.4l7.68-7.69a12.82 12.82 0 0 0 1.63-16.13l5.23-5.22c1-1.01 1-2.63 0-3.63zm-8.23 15.91c0 2.06-.8 3.99-2.26 5.44l-7.67 7.69a7.81 7.81 0 0 1-5.44 2.26 7.73 7.73 0 0 1-3.3-.77l3.72-3.83c1-1 1-2.62 0-3.62-.89-1.01-2.51-1.01-3.51 0l-3.83 3.82a7.55 7.55 0 0 1 1.48-8.73l7.59-7.69a7.71 7.71 0 0 1 8.83-1.49l-3.9 3.91a2.57 2.57 0 0 0 3.62 3.63l3.9-3.91c.49 1.02.77 2.13.77 3.29z"/></svg>