<svg xmlns="http://www.w3.org/2000/svg" width="192" height="149" viewBox="0 0 192 149"><path fill="#005494" d="M.05 148.52h75.21V37.44H.05zm39.2-5.57a3.6 3.6 0 0 1-3.63-3.57 3.6 3.6 0 0 1 3.62-3.57c2 0 3.63 1.6 3.63 3.57a3.6 3.6 0 0 1-3.63 3.57zm-28.32-94.8h53.46v81.95H10.93zm26.32-37.23h120.53v48.16h10.62V.47H26.63v32.22h10.62zM136 93V82H80v11zm5.46-29.87v83.65h50.51V63.13zm26.38 3.47c.67 0 1.22.53 1.22 1.2 0 .66-.55 1.2-1.22 1.2-.68 0-1.23-.54-1.23-1.2 0-.67.55-1.2 1.23-1.2zm-7.27 4.01h14.53v1.15h-14.53zm6.79 72.56a2.9 2.9 0 0 1-2.92-2.87 2.9 2.9 0 0 1 2.92-2.87 2.9 2.9 0 0 1 2.91 2.87 2.9 2.9 0 0 1-2.91 2.87zm16.5-9.85c-13.11.08-27.8.12-34.3.07V75.87h34.3zM80.12 96.78v6.34h37.44v2.77H80.11v5.73h55.86V96.78z"/></svg>